<?xml version="1.0" encoding="UTF-8"?>
<svg id="Capa_2" data-name="Capa 2" xmlns="http://www.w3.org/2000/svg" viewBox="0 0 2010.71 466.58">
  <defs>
    <style>
      .cls-1 {
        fill: #e22126;
      }

      .cls-2 {
        fill: #2a2a29;
      }

      .cls-3 {
        fill: #fff;
      }

      .cls-4 {
        fill: #d7b56d;
      }
    </style>
  </defs>
  <g id="Capa_1-2" data-name="Capa 1">
    <g>
      <g>
        <circle class="cls-4" cx="310.06" cy="198.43" r="198.43"/>
        <circle class="cls-2" cx="310.06" cy="198.43" r="183.48"/>
        <path class="cls-1" d="M290.01,385.25l-5.63-33.11c-10.71-1.77-21.24-4.67-31.35-8.65l-21.82,25.51-31.73-18.62,11.64-31.52c-8.38-6.89-16.05-14.65-22.83-23.12l-31.67,11.24-18.22-31.96,25.78-21.49c-3.83-10.14-6.6-20.7-8.24-31.46l-33.04-6.05.15-36.79,33.09-5.77c1.73-10.73,4.59-21.27,8.51-31.38l-25.6-21.71,18.48-31.81,31.57,11.5c6.85-8.41,14.58-16.11,23.03-22.93l-11.37-31.62,31.88-18.35,21.6,25.69c10.13-3.88,20.68-6.69,31.42-8.37l5.91-33.07h36.79l5.91,33.06c11.63,1.82,23,4.95,33.86,9.32l22.02-25.32,31.57,18.88-11.9,31.43c8.33,6.96,15.93,14.78,22.64,23.31l31.76-10.97,17.95,32.11-25.96,21.27c3.76,10.2,6.44,20.78,7.99,31.53l32.98,6.33-.46,36.78-33.12,5.49c-1.82,10.7-4.76,21.21-8.78,31.32l25.42,21.92-18.75,31.65-31.48-11.77c-6.92,8.36-14.71,15.99-23.21,22.74l11.11,31.72-32.04,18.08-21.38-25.87c-10.16,3.79-20.73,6.51-31.5,8.11l-6.19,33.01-36.79-.31Z"/>
        <path class="cls-4" d="M325.43,14.94l5.84,32.66c13.24,1.85,25.94,5.4,37.87,10.43l21.75-25.01,26.53,15.87-11.76,31.04c9.55,7.72,18.14,16.56,25.58,26.34l31.36-10.84,15.08,26.98-25.64,21.01c4.37,11.28,7.45,23.21,9.02,35.62l32.57,6.25-.39,30.91-32.71,5.42c-1.89,12.34-5.26,24.2-9.92,35.38l25.1,21.65-15.75,26.59-31.08-11.63c-7.68,9.58-16.49,18.21-26.23,25.69l10.97,31.32-26.92,15.19-21.11-25.55c-11.27,4.42-23.19,7.53-35.58,9.16l-6.11,32.6-30.91-.26-5.56-32.7c-12.35-1.83-24.22-5.15-35.42-9.77l-21.55,25.19-26.66-15.64,11.49-31.13c-9.61-7.64-18.28-16.42-25.8-26.13l-31.27,11.1-15.31-26.86,25.46-21.22c-4.47-11.25-7.63-23.16-9.31-35.54l-32.63-5.98.13-30.91,32.68-5.7c1.78-12.36,5.05-24.24,9.61-35.45l-25.28-21.44,15.53-26.73,31.17,11.36c7.6-9.65,16.34-18.35,26.02-25.91l-11.23-31.22,26.79-15.42,21.33,25.37c11.23-4.52,23.13-7.73,35.5-9.46l5.84-32.66h30.91M331.31,7.93h-42.66l-1.03,5.78-4.96,27.73c-9.31,1.61-18.46,4.05-27.31,7.28l-18.12-21.55-3.78-4.5-5.09,2.93-26.79,15.42-5.09,2.93,1.99,5.53,9.54,26.52c-7.24,6.04-13.95,12.72-20.01,19.93l-26.48-9.65-5.52-2.01-2.95,5.08-15.53,26.73-2.95,5.08,4.48,3.8,21.47,18.21c-3.27,8.84-5.75,17.98-7.4,27.28l-27.75,4.84-5.79,1.01-.02,5.88-.13,30.91-.02,5.88,5.78,1.06,27.71,5.07c1.57,9.32,3.97,18.48,7.16,27.34l-21.62,18.02-4.51,3.76,2.91,5.11,15.31,26.86,2.91,5.11,5.54-1.97,26.57-9.43c6.01,7.26,12.66,14,19.84,20.09l-9.76,26.44-2.04,5.51,5.07,2.97,26.66,15.64,5.07,2.97,3.82-4.47,18.3-21.39c8.84,3.31,17.97,5.83,27.25,7.52l4.72,27.76.99,5.79,5.88.05,30.91.26,5.88.05,1.08-5.78,5.19-27.68c9.32-1.53,18.5-3.89,27.38-7.05l17.93,21.69,3.74,4.53,5.12-2.89,26.92-15.19,5.12-2.89-1.94-5.55-9.32-26.61c7.29-5.98,14.05-12.59,20.17-19.76l26.41,9.88,5.5,2.06,2.99-5.06,15.75-26.59,2.99-5.06-4.45-3.84-21.32-18.38c3.35-8.83,5.91-17.95,7.63-27.22l27.78-4.61,5.8-.96.07-5.88.39-30.91.07-5.88-5.77-1.11-27.66-5.3c-1.49-9.31-3.82-18.49-6.94-27.4l21.77-17.84,4.54-3.72-2.87-5.13-15.08-26.98-2.87-5.13-5.55,1.92-26.64,9.21c-5.94-7.31-12.54-14.1-19.67-20.26l9.99-26.37,2.08-5.5-5.04-3.02-26.53-15.87-5.04-3.02-3.86,4.43-18.47,21.23c-9.63-3.7-19.62-6.45-29.82-8.21l-4.96-27.73-1.03-5.78h0Z"/>
        <g>
          <polygon class="cls-2" points="385.19 257.84 310.26 108.6 234.88 257.84 385.19 257.84"/>
          <g>
            <polygon class="cls-4" points="244.87 252.4 291.59 160.21 291.59 193.35 268.23 237.73 291.59 237.73 291.59 252.4 244.87 252.4"/>
            <polygon class="cls-4" points="296.01 150.48 308.02 126.26 308.02 252.73 295.83 252.73 296.01 150.48"/>
            <path class="cls-4" d="M311.91,126.26l.34,126.47h11.08v-14.49l44.65.2-56.07-112.18ZM320.8,165.48l27.13,58.88h-24.38l-2.75-58.88Z"/>
          </g>
        </g>
        <g>
          <path class="cls-3" d="M213.58,269.15l-1.65-4.16c2.25-1,4.31-1.28,6.16-.83s3.52,1.57,5,3.38c1.83,2.24,2.57,4.7,2.22,7.39-.35,2.69-1.85,5.12-4.5,7.29-2.8,2.29-5.58,3.35-8.31,3.17-2.74-.18-5.07-1.45-7-3.81-1.69-2.06-2.45-4.24-2.28-6.52.09-1.36.66-2.78,1.69-4.26l3.56,2.71c-.71.91-1.06,1.89-1.05,2.94.01,1.05.39,2.02,1.13,2.93,1.02,1.25,2.3,1.9,3.83,1.94s3.3-.75,5.31-2.4c2.13-1.74,3.33-3.37,3.61-4.87.28-1.51-.08-2.87-1.09-4.1-.74-.9-1.66-1.45-2.77-1.63-1.11-.18-2.39.09-3.86.82Z"/>
          <path class="cls-3" d="M206.44,264.32c-1.96,1.05-3.75,1.63-5.39,1.76-1.21.09-2.41-.04-3.59-.38-1.18-.34-2.2-.86-3.06-1.55-1.15-.92-2.14-2.17-2.98-3.73-1.52-2.83-1.85-5.56-1.01-8.2s2.83-4.79,5.95-6.47c3.1-1.66,5.97-2.12,8.63-1.37s4.73,2.53,6.24,5.35c1.53,2.85,1.88,5.59,1.04,8.21s-2.79,4.74-5.84,6.38ZM204.17,260.4c2.17-1.16,3.55-2.55,4.14-4.15.58-1.6.46-3.18-.37-4.72-.83-1.54-2.06-2.51-3.71-2.91-1.64-.39-3.58,0-5.8,1.2-2.2,1.18-3.58,2.54-4.15,4.08-.57,1.54-.42,3.12.44,4.71.86,1.6,2.09,2.59,3.71,2.98s3.53,0,5.74-1.19Z"/>
          <path class="cls-3" d="M205.21,238.05l-20.56,6.61-1.35-4.19,17.07-5.49-3.35-10.41,3.49-1.12,4.69,14.59Z"/>
          <path class="cls-3" d="M200.04,221.21l-21.55,3.14-2.33-15.98,3.64-.53,1.7,11.63,4.78-.7-1.58-10.82,3.63-.53,1.58,10.82,5.86-.86-1.76-12.04,3.63-.53,2.39,16.39Z"/>
          <path class="cls-3" d="M189.82,191.56l-3.67-.15.38-9.47,8.67.35c.85.96,1.58,2.32,2.19,4.09.61,1.77.88,3.56.8,5.35-.09,2.28-.65,4.24-1.67,5.89s-2.44,2.87-4.25,3.65c-1.81.78-3.76,1.13-5.85,1.04-2.27-.09-4.26-.65-5.98-1.67-1.72-1.02-3.02-2.47-3.88-4.33-.67-1.42-.96-3.17-.87-5.25.11-2.7.76-4.79,1.96-6.26,1.19-1.47,2.8-2.39,4.82-2.74l.64,4.4c-1.08.26-1.95.81-2.6,1.63-.65.82-1,1.86-1.05,3.13-.08,1.92.47,3.47,1.64,4.65,1.17,1.18,2.95,1.82,5.35,1.92,2.58.1,4.54-.39,5.88-1.49s2.04-2.57,2.12-4.43c.04-.92-.11-1.85-.43-2.79-.32-.94-.73-1.75-1.22-2.43l-2.76-.11-.2,5.03Z"/>
          <path class="cls-3" d="M199.08,179.28l-21.44-3.82.77-4.33,21.44,3.82-.77,4.33Z"/>
          <path class="cls-3" d="M189.7,168.96c-2.11-.68-3.78-1.58-5-2.67-.9-.81-1.64-1.76-2.21-2.85s-.91-2.18-1-3.28c-.13-1.47.08-3.04.63-4.73.99-3.05,2.73-5.19,5.22-6.4,2.49-1.22,5.42-1.28,8.79-.18,3.34,1.09,5.66,2.84,6.96,5.27,1.3,2.43,1.45,5.17.47,8.21-1,3.08-2.73,5.22-5.2,6.43s-5.35,1.28-8.65.21ZM190.96,164.61c2.34.76,4.3.8,5.86.11,1.56-.69,2.61-1.87,3.16-3.54.54-1.67.38-3.23-.47-4.69-.85-1.46-2.48-2.58-4.88-3.36-2.37-.77-4.31-.83-5.82-.16-1.51.66-2.54,1.85-3.1,3.58s-.42,3.3.42,4.74c.84,1.44,2.45,2.54,4.83,3.32Z"/>
          <path class="cls-3" d="M193.05,130.83l4.41-6.72c.99-1.51,1.87-2.59,2.62-3.24,1.02-.86,2.17-1.41,3.48-1.64s2.67-.17,4.09.2c1.42.37,2.99,1.11,4.69,2.23,1.5.98,2.67,2.02,3.51,3.1,1.03,1.33,1.67,2.68,1.94,4.06.2,1.04.12,2.22-.24,3.54-.28.98-.86,2.15-1.75,3.51l-4.54,6.92-18.2-11.95ZM198.54,129.18l12.06,7.92,1.8-2.74c.67-1.03,1.1-1.8,1.29-2.34.24-.69.31-1.35.22-1.98s-.47-1.33-1.12-2.12c-.65-.78-1.68-1.64-3.09-2.56s-2.57-1.51-3.49-1.76c-.92-.25-1.73-.28-2.45-.11-.71.17-1.37.55-1.97,1.14-.45.44-1.17,1.4-2.16,2.9l-1.08,1.65Z"/>
          <path class="cls-3" d="M223.14,125.38l-15.78-15,11.12-11.7,2.67,2.54-8.09,8.52,3.5,3.33,7.53-7.92,2.66,2.53-7.53,7.92,4.3,4.08,8.38-8.82,2.66,2.53-11.41,12Z"/>
          <path class="cls-3" d="M243.33,106.6l-12.61-17.75,3.58-2.54,12.61,17.75-3.58,2.54Z"/>
          <path class="cls-3" d="M249.72,101.83l-10.21-19.23,3.78-2.01,14.69,8.66-6.82-12.84,3.61-1.92,10.21,19.23-3.9,2.07-14.41-8.42,6.66,12.54-3.61,1.92Z"/>
          <path class="cls-3" d="M275.74,81.64l-1.06-3.51,9.07-2.74,2.5,8.3c-.62,1.12-1.68,2.26-3.15,3.41-1.48,1.15-3.07,1.99-4.79,2.51-2.18.66-4.22.77-6.12.35-1.9-.43-3.51-1.37-4.84-2.82-1.33-1.46-2.29-3.18-2.9-5.18-.66-2.17-.78-4.24-.38-6.2s1.34-3.66,2.83-5.09c1.13-1.09,2.69-1.94,4.68-2.54,2.59-.78,4.77-.85,6.56-.2,1.78.65,3.17,1.87,4.17,3.65l-3.95,2.04c-.6-.94-1.4-1.58-2.39-1.93-.99-.35-2.09-.34-3.3.03-1.84.55-3.13,1.58-3.86,3.07-.73,1.49-.75,3.39-.06,5.68.75,2.47,1.86,4.16,3.33,5.07,1.47.91,3.1,1.09,4.88.55.88-.27,1.71-.71,2.5-1.32s1.42-1.26,1.9-1.95l-.8-2.65-4.82,1.45Z"/>
          <path class="cls-3" d="M290.22,86.14l-2.29-21.65,16.06-1.69.39,3.66-11.68,1.23.51,4.8,10.87-1.15.38,3.65-10.87,1.15.62,5.89,12.1-1.28.38,3.65-16.47,1.74Z"/>
          <path class="cls-3" d="M309.59,84.35l1.58-21.72,4.27.31,7.83,15.15,1.05-14.5,4.07.3-1.58,21.72-4.4-.32-7.72-14.8-1.03,14.16-4.07-.3Z"/>
          <path class="cls-3" d="M330.57,86.54l4.37-21.33,4.31.88-4.37,21.33-4.31-.88Z"/>
          <path class="cls-3" d="M338.42,88.01l6.96-20.63,15.3,5.16-1.18,3.49-11.13-3.75-1.54,4.58,10.36,3.49-1.17,3.48-10.36-3.49-1.89,5.62,11.53,3.89-1.17,3.48-15.69-5.29Z"/>
          <path class="cls-3" d="M356.71,94.44l10.55-19.05,8.09,4.48c2.04,1.13,3.42,2.12,4.15,2.97.73.85,1.13,1.87,1.21,3.05.07,1.18-.21,2.34-.83,3.46-.79,1.43-1.87,2.38-3.22,2.84-1.36.47-2.94.36-4.74-.33.56.95.96,1.86,1.17,2.74s.38,2.32.48,4.3l.27,5-4.6-2.55-.49-5.68c-.17-2.03-.33-3.34-.48-3.92s-.39-1.06-.72-1.43c-.33-.37-.93-.8-1.82-1.29l-.78-.43-4.4,7.95-3.85-2.13ZM366.65,85.57l2.85,1.58c1.84,1.02,3.04,1.58,3.59,1.68.54.1,1.05.03,1.52-.21s.87-.64,1.18-1.21c.35-.64.47-1.25.35-1.84-.12-.58-.47-1.1-1.04-1.55-.29-.22-1.21-.76-2.77-1.62l-3-1.66-2.68,4.83Z"/>
          <path class="cls-3" d="M381.19,96.03c1.43-1.7,2.88-2.91,4.36-3.63,1.09-.53,2.25-.86,3.47-.98,1.22-.12,2.36-.02,3.42.31,1.41.43,2.79,1.22,4.15,2.36,2.46,2.07,3.78,4.48,3.97,7.24s-.85,5.5-3.13,8.21c-2.26,2.69-4.76,4.18-7.5,4.47-2.74.29-5.33-.6-7.78-2.66-2.48-2.08-3.81-4.5-4-7.24-.19-2.74.83-5.44,3.06-8.09ZM384.75,98.83c-1.59,1.89-2.36,3.68-2.3,5.39.05,1.71.75,3.12,2.09,4.25,1.34,1.13,2.85,1.57,4.52,1.33,1.67-.24,3.32-1.33,4.95-3.26,1.61-1.91,2.39-3.69,2.34-5.33-.05-1.64-.76-3.05-2.15-4.22-1.39-1.17-2.9-1.63-4.55-1.4-1.65.24-3.28,1.31-4.89,3.23Z"/>
          <path class="cls-3" d="M396.8,114.48l3.03,3.05c-.95,1.11-1.43,2.18-1.46,3.21-.02,1.04.39,2.07,1.23,3.11.9,1.1,1.8,1.73,2.72,1.91.92.18,1.69.01,2.31-.5.4-.33.64-.72.73-1.18.09-.46,0-1.07-.27-1.82-.19-.51-.69-1.62-1.49-3.33-1.04-2.19-1.53-3.93-1.47-5.2.08-1.79.79-3.23,2.12-4.33.86-.7,1.86-1.12,3.01-1.24s2.29.11,3.43.71c1.14.6,2.24,1.54,3.3,2.84,1.73,2.12,2.57,4.09,2.51,5.92-.05,1.83-.83,3.4-2.34,4.72l-2.93-3.28c.75-.85,1.12-1.67,1.1-2.46-.01-.79-.41-1.66-1.19-2.62-.81-.99-1.64-1.6-2.51-1.83-.56-.15-1.05-.04-1.49.32-.4.33-.6.77-.61,1.34,0,.72.47,2.07,1.43,4.05.96,1.98,1.56,3.53,1.79,4.67.23,1.13.17,2.22-.19,3.26-.36,1.04-1.07,2-2.14,2.87-.97.79-2.09,1.26-3.37,1.41-1.28.15-2.53-.09-3.74-.74-1.21-.65-2.42-1.7-3.61-3.17-1.74-2.13-2.59-4.17-2.54-6.12.05-1.95.93-3.8,2.63-5.57Z"/>
          <path class="cls-3" d="M428.08,132.73l3.38,7.29c.76,1.64,1.22,2.96,1.36,3.94.2,1.32.05,2.59-.44,3.82-.49,1.23-1.26,2.35-2.33,3.37s-2.52,1.95-4.37,2.81c-1.63.75-3.12,1.2-4.49,1.34-1.67.17-3.16,0-4.47-.5-.99-.38-1.95-1.07-2.88-2.07-.69-.75-1.37-1.86-2.05-3.34l-3.48-7.51,19.76-9.15ZM426.58,138.26l-13.09,6.06,1.38,2.98c.52,1.11.95,1.89,1.31,2.33.46.57.98.98,1.57,1.23.58.25,1.38.3,2.39.16s2.28-.56,3.81-1.27c1.53-.71,2.64-1.38,3.33-2.03s1.16-1.32,1.39-2.02.26-1.46.07-2.28c-.13-.62-.58-1.74-1.33-3.36l-.83-1.79Z"/>
          <path class="cls-3" d="M416.82,161.17l21.08-5.44,4.04,15.63-3.57.92-2.94-11.38-4.67,1.21,2.73,10.58-3.55.92-2.73-10.58-5.74,1.48,3.04,11.78-3.55.92-4.14-16.04Z"/>
          <path class="cls-3" d="M421.32,180.19l21.52-1.88.38,4.38-17.86,1.56.95,10.89-3.66.32-1.33-15.27Z"/>
          <path class="cls-3" d="M422.33,205.35l21.55,3.11-1.01,6.98c-.38,2.65-.74,4.36-1.07,5.13-.5,1.19-1.35,2.12-2.56,2.8s-2.66.89-4.38.64c-1.32-.19-2.4-.59-3.23-1.2-.83-.61-1.45-1.32-1.86-2.14-.41-.81-.64-1.62-.7-2.4-.06-1.07.06-2.59.34-4.56l.41-2.84-8.13-1.17.63-4.35ZM439.61,212.28l-6.12-.88-.34,2.38c-.25,1.71-.3,2.88-.16,3.49.14.61.43,1.11.86,1.51.43.4.97.64,1.6.73.78.11,1.46-.02,2.04-.41.58-.39.98-.92,1.21-1.61.17-.51.37-1.54.6-3.11l.3-2.1Z"/>
          <path class="cls-3" d="M419.26,224.51l20.69,6.79-5.03,15.34-3.5-1.15,3.66-11.16-4.59-1.5-3.41,10.39-3.49-1.14,3.41-10.39-5.63-1.85-3.79,11.56-3.49-1.14,5.16-15.74Z"/>
          <path class="cls-3" d="M412.97,242.87l19.13,10.4-4.42,8.13c-1.11,2.04-2.09,3.44-2.94,4.18-.85.74-1.86,1.15-3.04,1.23s-2.34-.19-3.47-.8c-1.44-.78-2.39-1.85-2.87-3.2s-.38-2.93.29-4.75c-.94.57-1.85.97-2.73,1.2-.88.23-2.31.4-4.3.51l-5,.31,2.51-4.62,5.68-.53c2.03-.18,3.33-.35,3.92-.51.59-.15,1.06-.4,1.43-.73s.79-.94,1.27-1.83l.42-.78-7.99-4.34,2.1-3.86ZM421.91,252.74l-1.55,2.86c-1.01,1.85-1.56,3.05-1.65,3.6-.09.55-.02,1.05.22,1.52.24.47.65.86,1.22,1.17.64.35,1.26.46,1.84.33.58-.13,1.1-.48,1.54-1.05.21-.29.75-1.22,1.6-2.78l1.64-3.01-4.86-2.64Z"/>
          <path class="cls-3" d="M419.55,274.9l-2.78,3.41-9.14-7.46c-1.45-1.18-2.42-1.91-2.92-2.17-.81-.42-1.65-.52-2.51-.32-.87.21-1.69.79-2.46,1.74-.79.97-1.19,1.86-1.19,2.67,0,.81.24,1.5.73,2.07s1.41,1.4,2.74,2.49l9.33,7.61-2.78,3.41-8.86-7.23c-2.03-1.65-3.38-2.91-4.07-3.78-.69-.87-1.12-1.78-1.29-2.75-.17-.96-.09-2,.24-3.11.33-1.11,1.05-2.33,2.14-3.66,1.31-1.61,2.5-2.68,3.55-3.21,1.05-.53,2.07-.79,3.06-.79.99,0,1.87.19,2.65.57,1.15.57,2.67,1.62,4.55,3.16l9,7.34ZM416.73,280.33l2.15,4.4-2.96,3.63-.86-5.97,1.67-2.05Z"/>
        </g>
        <circle class="cls-3" cx="231.07" cy="299.91" r="6.32"/>
        <circle class="cls-3" cx="385.19" cy="301.88" r="6.32"/>
        <g>
          <path class="cls-3" d="M272.34,326.94l-4.98-1.39,5.24-18.75c-2.29,1.19-4.79,1.85-7.48,1.97l1.26-4.52c1.42-.06,3.05-.47,4.91-1.23,1.86-.76,3.29-1.85,4.3-3.28l4.04,1.13-7.29,26.07Z"/>
          <path class="cls-3" d="M283.82,323.33l5.03.17c-.03,1.03.18,1.82.62,2.38.44.56,1.08.9,1.91,1.02,1.06.15,2.02-.2,2.9-1.07.88-.86,1.65-2.81,2.3-5.83-1.5,1.31-3.22,1.82-5.15,1.54-2.1-.3-3.79-1.38-5.08-3.22-1.29-1.84-1.74-4.06-1.37-6.66.39-2.71,1.51-4.77,3.36-6.19,1.85-1.42,4.02-1.95,6.5-1.59,2.71.39,4.77,1.76,6.21,4.11,1.43,2.34,1.8,5.91,1.1,10.71-.71,4.88-2.12,8.26-4.24,10.16-2.12,1.9-4.63,2.63-7.53,2.21-2.09-.3-3.69-1.1-4.82-2.4s-1.71-3.08-1.75-5.34ZM297.02,313.84c.24-1.65.05-2.98-.58-4-.63-1.02-1.44-1.6-2.43-1.75-.95-.14-1.79.12-2.52.78-.73.66-1.22,1.83-1.47,3.53-.25,1.72-.09,3.04.47,3.94s1.35,1.43,2.37,1.58c.98.14,1.87-.12,2.65-.8.79-.68,1.29-1.77,1.51-3.27Z"/>
          <path class="cls-3" d="M324.34,311.96l-4.99.62c-.14-1.03-.46-1.78-.99-2.27-.52-.48-1.19-.72-2.01-.71-1.09.01-2.01.52-2.75,1.51-.74.99-1.19,3.04-1.34,6.14,1.27-1.54,2.86-2.32,4.77-2.35,2.16-.03,4.02.77,5.58,2.39,1.56,1.62,2.36,3.73,2.39,6.33.04,2.76-.74,4.98-2.34,6.67-1.6,1.69-3.66,2.55-6.2,2.59-2.72.04-4.97-.99-6.75-3.08-1.78-2.09-2.71-5.54-2.77-10.36-.07-4.94.8-8.51,2.59-10.72s4.15-3.33,7.07-3.37c2.05-.03,3.75.52,5.11,1.65,1.36,1.13,2.24,2.78,2.63,4.96ZM312.78,323.39c.02,1.68.43,2.97,1.21,3.87.78.9,1.67,1.35,2.67,1.33.96-.01,1.75-.4,2.38-1.15.63-.76.93-1.99.91-3.69-.02-1.75-.38-3.03-1.08-3.84-.7-.81-1.56-1.2-2.59-1.19-.99.01-1.83.41-2.5,1.2s-1,1.94-.98,3.46Z"/>
          <path class="cls-3" d="M348.35,323.09l1.03,4.69-17.69,3.9c-.2-1.81,0-3.62.61-5.42.61-1.8,2.03-4.32,4.28-7.56,1.81-2.62,2.88-4.37,3.23-5.23.46-1.2.58-2.3.36-3.32-.25-1.12-.74-1.92-1.48-2.39-.74-.47-1.64-.59-2.71-.35-1.05.23-1.82.74-2.3,1.51-.48.77-.61,1.9-.38,3.4l-5.14.61c-.31-2.84.19-5.04,1.5-6.6s3.16-2.6,5.53-3.12c2.6-.57,4.79-.32,6.59.75,1.79,1.07,2.92,2.65,3.38,4.73.26,1.19.3,2.36.11,3.53-.19,1.17-.61,2.44-1.28,3.81-.44.91-1.29,2.28-2.56,4.09-1.27,1.81-2.06,3-2.38,3.58-.32.57-.56,1.12-.72,1.63l10.02-2.21Z"/>
        </g>
      </g>
      <g>
        <path class="cls-2" d="M16.6,456.17l4.81,1.53c-.74,2.68-1.96,4.68-3.68,5.98-1.72,1.3-3.89,1.95-6.53,1.95-3.26,0-5.95-1.12-8.05-3.35-2.1-2.23-3.15-5.28-3.15-9.15,0-4.09,1.06-7.27,3.17-9.53s4.89-3.4,8.33-3.4c3.01,0,5.45.89,7.33,2.67,1.12,1.05,1.96,2.56,2.51,4.53l-4.91,1.17c-.29-1.27-.9-2.28-1.82-3.02-.92-.74-2.04-1.11-3.36-1.11-1.82,0-3.3.65-4.44,1.96-1.13,1.31-1.7,3.43-1.7,6.36,0,3.11.56,5.32,1.68,6.64,1.12,1.32,2.57,1.98,4.36,1.98,1.32,0,2.45-.42,3.4-1.26.95-.84,1.63-2.16,2.05-3.96Z"/>
        <path class="cls-2" d="M24.67,453.07c0-2.5.37-4.61,1.12-6.3.56-1.25,1.32-2.38,2.29-3.37s2.03-1.73,3.18-2.21c1.53-.65,3.3-.97,5.3-.97,3.62,0,6.52,1.12,8.7,3.37s3.26,5.37,3.26,9.37-1.08,7.07-3.24,9.32c-2.16,2.24-5.04,3.36-8.65,3.36s-6.56-1.12-8.72-3.35c-2.16-2.23-3.24-5.3-3.24-9.21ZM29.78,452.9c0,2.78.64,4.89,1.93,6.33,1.29,1.44,2.92,2.16,4.9,2.16s3.6-.71,4.87-2.14c1.27-1.42,1.9-3.56,1.9-6.41s-.62-4.92-1.85-6.31c-1.24-1.39-2.88-2.08-4.92-2.08s-3.7.7-4.95,2.1c-1.25,1.4-1.88,3.52-1.88,6.35Z"/>
        <path class="cls-2" d="M52.52,465.21v-24.38h4.96v20.24h12.34v4.14h-17.31Z"/>
        <path class="cls-2" d="M73.37,465.21v-24.58h18.23v4.16h-13.26v5.45h12.34v4.14h-12.34v6.69h13.73v4.14h-18.7Z"/>
        <path class="cls-2" d="M107.71,456.17v-4.14h10.7v9.79c-1.04,1.01-2.55,1.89-4.52,2.66-1.97.77-3.97,1.15-6,1.15-2.57,0-4.81-.54-6.72-1.62-1.91-1.08-3.35-2.62-4.31-4.63-.96-2.01-1.44-4.19-1.44-6.55,0-2.56.54-4.83,1.61-6.83,1.07-1.99,2.64-3.52,4.71-4.58,1.58-.82,3.54-1.22,5.89-1.22,3.05,0,5.44.64,7.15,1.92s2.82,3.05,3.31,5.31l-4.93.92c-.35-1.21-1-2.16-1.95-2.86-.96-.7-2.15-1.05-3.58-1.05-2.17,0-3.89.69-5.17,2.06-1.28,1.38-1.92,3.42-1.92,6.12,0,2.92.65,5.11,1.95,6.57,1.3,1.46,3,2.19,5.1,2.19,1.04,0,2.08-.2,3.13-.61,1.05-.41,1.94-.9,2.69-1.48v-3.12h-5.68Z"/>
        <path class="cls-2" d="M122.84,465.21v-24.58h4.96v24.58h-4.96Z"/>
        <path class="cls-2" d="M131.52,453.07c0-2.5.37-4.61,1.12-6.3.56-1.25,1.32-2.38,2.29-3.37.97-1,2.03-1.73,3.18-2.21,1.53-.65,3.3-.97,5.3-.97,3.62,0,6.52,1.12,8.7,3.37,2.17,2.25,3.26,5.37,3.26,9.37s-1.08,7.07-3.24,9.32c-2.16,2.24-5.04,3.36-8.65,3.36s-6.56-1.12-8.72-3.35c-2.16-2.23-3.24-5.3-3.24-9.21ZM136.64,452.9c0,2.78.64,4.89,1.93,6.33,1.29,1.44,2.92,2.16,4.9,2.16s3.6-.71,4.87-2.14c1.27-1.42,1.9-3.56,1.9-6.41s-.62-4.92-1.85-6.31c-1.24-1.39-2.88-2.08-4.92-2.08s-3.7.7-4.95,2.1c-1.25,1.4-1.88,3.52-1.88,6.35Z"/>
        <path class="cls-2" d="M168.77,440.63h9.07c2.05,0,3.61.16,4.68.47,1.44.42,2.68,1.18,3.71,2.26s1.81,2.41,2.35,3.98c.54,1.57.81,3.51.81,5.81,0,2.02-.25,3.77-.75,5.23-.62,1.79-1.49,3.24-2.63,4.34-.86.84-2.02,1.49-3.49,1.96-1.1.35-2.56.52-4.39.52h-9.34v-24.58ZM173.73,444.78v16.28h3.71c1.39,0,2.39-.08,3-.24.8-.2,1.47-.54,2-1.02s.96-1.27,1.3-2.37c.33-1.1.5-2.6.5-4.5s-.17-3.36-.5-4.38c-.34-1.02-.8-1.81-1.41-2.38-.6-.57-1.37-.96-2.3-1.16-.69-.16-2.05-.23-4.08-.23h-2.23Z"/>
        <path class="cls-2" d="M193.59,465.21v-24.58h18.23v4.16h-13.26v5.45h12.34v4.14h-12.34v6.69h13.73v4.14h-18.7Z"/>
        <path class="cls-2" d="M225.89,465.21v-24.58h4.96v24.58h-4.96Z"/>
        <path class="cls-2" d="M235.63,465.21v-24.58h4.83l10.06,16.42v-16.42h4.61v24.58h-4.98l-9.91-16.03v16.03h-4.61Z"/>
        <path class="cls-2" d="M271.82,456.17v-4.14h10.7v9.79c-1.04,1.01-2.55,1.89-4.52,2.66-1.97.77-3.97,1.15-6,1.15-2.57,0-4.81-.54-6.72-1.62-1.91-1.08-3.35-2.62-4.31-4.63-.96-2.01-1.44-4.19-1.44-6.55,0-2.56.54-4.83,1.61-6.83,1.07-1.99,2.64-3.52,4.71-4.58,1.58-.82,3.54-1.22,5.89-1.22,3.05,0,5.44.64,7.15,1.92s2.82,3.05,3.31,5.31l-4.93.92c-.35-1.21-1-2.16-1.95-2.86-.96-.7-2.15-1.05-3.58-1.05-2.17,0-3.89.69-5.17,2.06-1.28,1.38-1.92,3.42-1.92,6.12,0,2.92.65,5.11,1.95,6.57,1.3,1.46,3,2.19,5.1,2.19,1.04,0,2.08-.2,3.13-.61,1.05-.41,1.94-.9,2.69-1.48v-3.12h-5.68Z"/>
        <path class="cls-2" d="M287.09,465.21v-24.58h18.23v4.16h-13.27v5.45h12.34v4.14h-12.34v6.69h13.73v4.14h-18.7Z"/>
        <path class="cls-2" d="M310.05,465.21v-24.58h4.83l10.06,16.42v-16.42h4.61v24.58h-4.98l-9.91-16.03v16.03h-4.61Z"/>
        <path class="cls-2" d="M334.65,465.21v-24.58h4.96v24.58h-4.96Z"/>
        <path class="cls-2" d="M344.35,465.21v-24.58h18.23v4.16h-13.26v5.45h12.34v4.14h-12.34v6.69h13.73v4.14h-18.7Z"/>
        <path class="cls-2" d="M367.27,465.21v-24.58h10.45c2.63,0,4.54.22,5.73.66,1.19.44,2.14,1.23,2.86,2.36.71,1.13,1.07,2.42,1.07,3.87,0,1.84-.54,3.37-1.63,4.57-1.08,1.2-2.71,1.96-4.86,2.27,1.07.63,1.96,1.31,2.66,2.06.7.75,1.64,2.08,2.83,3.99l3,4.8h-5.94l-3.59-5.35c-1.27-1.91-2.15-3.12-2.62-3.61-.47-.5-.97-.84-1.49-1.02-.53-.18-1.36-.28-2.5-.28h-1.01v10.26h-4.96ZM372.23,451.02h3.67c2.38,0,3.87-.1,4.46-.3s1.06-.55,1.39-1.04c.34-.49.5-1.11.5-1.84,0-.83-.22-1.5-.66-2s-1.06-.83-1.87-.96c-.4-.06-1.61-.08-3.62-.08h-3.87v6.24Z"/>
        <path class="cls-2" d="M391.05,453.07c0-2.5.38-4.61,1.12-6.3.56-1.25,1.32-2.38,2.29-3.37.97-1,2.03-1.73,3.18-2.21,1.53-.65,3.3-.97,5.3-.97,3.62,0,6.52,1.12,8.7,3.37,2.17,2.25,3.26,5.37,3.26,9.37s-1.08,7.07-3.24,9.32c-2.16,2.24-5.04,3.36-8.65,3.36s-6.56-1.12-8.72-3.35c-2.16-2.23-3.24-5.3-3.24-9.21ZM396.16,452.9c0,2.78.64,4.89,1.93,6.33,1.29,1.44,2.92,2.16,4.9,2.16s3.6-.71,4.87-2.14c1.27-1.42,1.9-3.56,1.9-6.41s-.62-4.92-1.85-6.31c-1.24-1.39-2.88-2.08-4.92-2.08s-3.7.7-4.95,2.1c-1.25,1.4-1.88,3.52-1.88,6.35Z"/>
        <path class="cls-2" d="M417.51,457.21l4.83-.47c.29,1.62.88,2.81,1.77,3.57.89.76,2.09,1.14,3.6,1.14,1.6,0,2.8-.34,3.61-1.01.81-.68,1.22-1.47,1.22-2.37,0-.58-.17-1.08-.51-1.48s-.94-.76-1.79-1.06c-.58-.2-1.91-.56-3.97-1.07-2.66-.66-4.53-1.47-5.6-2.43-1.51-1.35-2.26-3-2.26-4.95,0-1.25.35-2.42,1.06-3.51.71-1.09,1.73-1.92,3.07-2.49,1.34-.57,2.95-.85,4.84-.85,3.08,0,5.41.68,6.97,2.03,1.56,1.35,2.38,3.16,2.46,5.42l-4.96.22c-.21-1.26-.67-2.17-1.37-2.72-.7-.55-1.75-.83-3.14-.83s-2.57.3-3.39.89c-.53.38-.79.89-.79,1.53,0,.58.25,1.08.74,1.49.63.53,2.15,1.07,4.56,1.64,2.42.57,4.2,1.16,5.36,1.77s2.06,1.44,2.72,2.5.98,2.36.98,3.92c0,1.41-.39,2.73-1.17,3.96-.78,1.23-1.89,2.14-3.32,2.74-1.43.6-3.21.9-5.35.9-3.11,0-5.5-.72-7.16-2.15s-2.66-3.53-2.98-6.28Z"/>
        <path class="cls-2" d="M451.2,440.63h9.07c2.05,0,3.61.16,4.68.47,1.44.42,2.68,1.18,3.71,2.26,1.03,1.08,1.81,2.41,2.35,3.98.54,1.57.8,3.51.8,5.81,0,2.02-.25,3.77-.75,5.23-.62,1.79-1.49,3.24-2.63,4.34-.86.84-2.02,1.49-3.49,1.96-1.1.35-2.56.52-4.39.52h-9.34v-24.58ZM456.16,444.78v16.28h3.71c1.39,0,2.39-.08,3-.24.8-.2,1.47-.54,2-1.02s.96-1.27,1.3-2.37.5-2.6.5-4.5-.17-3.36-.5-4.38c-.33-1.02-.8-1.81-1.41-2.38-.6-.57-1.37-.96-2.3-1.16-.69-.16-2.05-.23-4.08-.23h-2.23Z"/>
        <path class="cls-2" d="M476.02,465.21v-24.58h18.23v4.16h-13.26v5.45h12.34v4.14h-12.34v6.69h13.73v4.14h-18.7Z"/>
        <path class="cls-2" d="M499.06,465.21v-24.38h4.96v20.24h12.34v4.14h-17.31Z"/>
        <path class="cls-2" d="M528.83,465.21v-24.58h7.96c3.02,0,4.99.12,5.9.37,1.41.37,2.59,1.17,3.54,2.41s1.43,2.83,1.43,4.79c0,1.51-.27,2.78-.82,3.81-.55,1.03-1.24,1.84-2.09,2.42-.84.59-1.7.98-2.57,1.17-1.19.24-2.9.35-5.15.35h-3.24v9.27h-4.96ZM533.79,444.78v6.98h2.72c1.96,0,3.26-.13,3.92-.39.66-.26,1.18-.66,1.55-1.21.37-.55.56-1.19.56-1.91,0-.89-.26-1.63-.79-2.21-.53-.58-1.19-.94-2-1.09-.59-.11-1.78-.17-3.57-.17h-2.4Z"/>
        <path class="cls-2" d="M551.73,465.21v-24.58h18.23v4.16h-13.26v5.45h12.34v4.14h-12.34v6.69h13.73v4.14h-18.7Z"/>
        <path class="cls-2" d="M574.66,465.21v-24.58h10.45c2.63,0,4.54.22,5.73.66,1.19.44,2.14,1.23,2.86,2.36.71,1.13,1.07,2.42,1.07,3.87,0,1.84-.54,3.37-1.63,4.57-1.08,1.2-2.71,1.96-4.86,2.27,1.07.63,1.96,1.31,2.66,2.06.7.75,1.64,2.08,2.83,3.99l3,4.8h-5.94l-3.59-5.35c-1.27-1.91-2.15-3.12-2.62-3.61-.47-.5-.97-.84-1.49-1.02-.53-.18-1.36-.28-2.5-.28h-1.01v10.26h-4.96ZM579.62,451.02h3.67c2.38,0,3.87-.1,4.46-.3s1.06-.55,1.39-1.04c.34-.49.5-1.11.5-1.84,0-.83-.22-1.5-.66-2s-1.06-.83-1.87-.96c-.4-.06-1.61-.08-3.62-.08h-3.87v6.24Z"/>
        <path class="cls-2" d="M599.41,440.63h4.96v13.31c0,2.11.06,3.48.18,4.11.21,1.01.72,1.81,1.52,2.42s1.89.91,3.28.91,2.47-.29,3.19-.86c.71-.58,1.15-1.28,1.29-2.12.15-.84.22-2.23.22-4.18v-13.6h4.96v12.91c0,2.95-.13,5.04-.4,6.25-.27,1.22-.76,2.25-1.48,3.09-.72.84-1.68,1.51-2.89,2-1.21.5-2.78.75-4.73.75-2.35,0-4.13-.27-5.34-.81-1.21-.54-2.17-1.25-2.88-2.11-.71-.87-1.17-1.77-1.39-2.73-.32-1.41-.49-3.49-.49-6.24v-13.11ZM606.17,439.22l2.31-5.01h5.28l-4.61,5.01h-2.98Z"/>
      </g>
      <rect class="cls-2" x="676.36" y=".16" width="7" height="465.75"/>
      <g>
        <path class="cls-2" d="M782.32,331.17l12.86,4.08c-1.97,7.17-5.25,12.5-9.84,15.98-4.59,3.48-10.4,5.22-17.46,5.22-8.72,0-15.9-2.98-21.51-8.94-5.62-5.96-8.43-14.11-8.43-24.45,0-10.94,2.82-19.43,8.47-25.48s13.07-9.08,22.27-9.08c8.04,0,14.56,2.38,19.58,7.12,2.99,2.81,5.23,6.84,6.72,12.1l-13.13,3.14c-.78-3.41-2.4-6.1-4.86-8.07-2.46-1.97-5.46-2.96-8.99-2.96-4.87,0-8.82,1.75-11.85,5.24-3.03,3.5-4.55,9.16-4.55,16.98,0,8.31,1.49,14.22,4.48,17.75,2.99,3.53,6.87,5.29,11.65,5.29,3.53,0,6.56-1.12,9.1-3.36,2.54-2.24,4.36-5.77,5.47-10.58Z"/>
        <path class="cls-2" d="M803.88,322.88c0-6.69,1-12.31,3-16.85,1.49-3.35,3.53-6.35,6.12-9.01s5.42-4.63,8.49-5.92c4.09-1.73,8.81-2.6,14.16-2.6,9.68,0,17.43,3,23.24,9.01,5.81,6.01,8.72,14.36,8.72,25.05s-2.88,18.91-8.65,24.9c-5.77,5.99-13.47,8.99-23.12,8.99s-17.54-2.98-23.3-8.94c-5.77-5.96-8.65-14.17-8.65-24.63ZM817.55,322.43c0,7.44,1.72,13.08,5.15,16.92,3.43,3.84,7.8,5.76,13.09,5.76s9.63-1.9,13.02-5.71c3.39-3.81,5.09-9.52,5.09-17.14s-1.65-13.15-4.95-16.85c-3.3-3.7-7.69-5.56-13.15-5.56s-9.88,1.88-13.22,5.62c-3.35,3.75-5.02,9.4-5.02,16.96Z"/>
        <path class="cls-2" d="M878.09,355.32v-65.7h12.91l26.89,43.87v-43.87h12.32v65.7h-13.31l-26.49-42.84v42.84h-12.32Z"/>
        <path class="cls-2" d="M940.88,333.95l12.91-1.26c.78,4.33,2.35,7.51,4.73,9.55,2.38,2.03,5.58,3.05,9.61,3.05,4.27,0,7.49-.9,9.66-2.71s3.25-3.92,3.25-6.34c0-1.55-.46-2.88-1.37-3.97-.91-1.09-2.5-2.04-4.77-2.85-1.55-.54-5.09-1.49-10.62-2.87-7.11-1.76-12.1-3.93-14.97-6.5-4.03-3.61-6.05-8.02-6.05-13.22,0-3.35.95-6.48,2.85-9.39s4.63-5.13,8.2-6.66,7.88-2.29,12.93-2.29c8.25,0,14.45,1.81,18.62,5.42,4.17,3.62,6.36,8.44,6.57,14.48l-13.27.58c-.57-3.38-1.79-5.8-3.65-7.28-1.87-1.48-4.67-2.22-8.4-2.22s-6.87.79-9.05,2.38c-1.4,1.02-2.11,2.38-2.11,4.08,0,1.55.66,2.88,1.97,3.99,1.67,1.4,5.74,2.87,12.19,4.39,6.45,1.52,11.23,3.1,14.32,4.73,3.09,1.63,5.51,3.86,7.26,6.68,1.75,2.82,2.62,6.31,2.62,10.46,0,3.76-1.05,7.29-3.14,10.58-2.09,3.29-5.05,5.73-8.87,7.33-3.82,1.6-8.59,2.4-14.3,2.4-8.31,0-14.68-1.92-19.14-5.76-4.45-3.84-7.11-9.43-7.98-16.78Z"/>
        <path class="cls-2" d="M1005.46,355.32v-65.7h48.71v11.11h-35.45v14.57h32.98v11.07h-32.98v17.88h36.7v11.07h-49.97Z"/>
        <path class="cls-2" d="M1090.38,289.62h13.22v41.59c0,5.44-.48,9.62-1.43,12.55-1.28,3.82-3.62,6.89-6.99,9.21-3.38,2.32-7.83,3.47-13.35,3.47-6.48,0-11.47-1.82-14.97-5.45-3.5-3.63-5.26-8.96-5.29-15.98l12.5-1.43c.15,3.76.7,6.42,1.66,7.98,1.43,2.36,3.61,3.54,6.54,3.54s5.05-.84,6.27-2.53c1.22-1.69,1.84-5.19,1.84-10.51v-42.44Z"/>
        <path class="cls-2" d="M1115.03,322.88c0-6.69,1-12.31,3-16.85,1.49-3.35,3.53-6.35,6.12-9.01s5.42-4.63,8.49-5.92c4.09-1.73,8.81-2.6,14.16-2.6,9.68,0,17.43,3,23.24,9.01,5.81,6.01,8.72,14.36,8.72,25.05s-2.88,18.91-8.65,24.9c-5.77,5.99-13.47,8.99-23.12,8.99s-17.54-2.98-23.3-8.94c-5.77-5.96-8.65-14.17-8.65-24.63ZM1128.7,322.43c0,7.44,1.72,13.08,5.15,16.92,3.43,3.84,7.8,5.76,13.09,5.76s9.63-1.9,13.02-5.71c3.39-3.81,5.09-9.52,5.09-17.14s-1.65-13.15-4.95-16.85c-3.3-3.7-7.69-5.56-13.15-5.56s-9.88,1.88-13.22,5.62c-3.35,3.75-5.02,9.4-5.02,16.96Z"/>
        <path class="cls-2" d="M1214.57,289.62h24.25c5.47,0,9.64.42,12.5,1.25,3.85,1.14,7.15,3.15,9.9,6.05s4.84,6.45,6.27,10.64c1.43,4.2,2.15,9.38,2.15,15.53,0,5.41-.67,10.07-2.02,13.98-1.64,4.78-3.99,8.65-7.04,11.61-2.3,2.24-5.41,3.99-9.32,5.24-2.93.93-6.84,1.39-11.74,1.39h-24.96v-65.7ZM1227.83,300.74v43.52h9.9c3.7,0,6.38-.21,8.02-.63,2.15-.54,3.94-1.45,5.36-2.73,1.42-1.28,2.58-3.4,3.47-6.34.9-2.94,1.34-6.95,1.34-12.03s-.45-8.98-1.34-11.7c-.9-2.72-2.15-4.84-3.76-6.36-1.61-1.52-3.66-2.55-6.14-3.09-1.85-.42-5.48-.63-10.89-.63h-5.96Z"/>
        <path class="cls-2" d="M1280.89,355.32v-65.7h48.71v11.11h-35.45v14.57h32.98v11.07h-32.98v17.88h36.7v11.07h-49.97Z"/>
        <path class="cls-2" d="M1342.11,355.32v-65.7h21.29c8.07,0,13.33.33,15.78.99,3.76.99,6.92,3.13,9.46,6.43,2.54,3.3,3.81,7.57,3.81,12.79,0,4.03-.73,7.42-2.2,10.17-1.46,2.75-3.32,4.91-5.58,6.47-2.26,1.57-4.55,2.61-6.88,3.12-3.17.63-7.75.94-13.76.94h-8.65v24.78h-13.27ZM1355.38,300.74v18.64h7.26c5.23,0,8.72-.34,10.49-1.03s3.14-1.76,4.15-3.23,1.5-3.17,1.5-5.11c0-2.39-.7-4.36-2.11-5.92-1.41-1.55-3.18-2.52-5.33-2.91-1.58-.3-4.77-.45-9.55-.45h-6.41Z"/>
        <path class="cls-2" d="M1455.76,355.32h-14.43l-5.74-14.92h-26.26l-5.42,14.92h-14.07l25.59-65.7h14.03l26.31,65.7ZM1431.34,329.33l-9.05-24.38-8.87,24.38h17.93Z"/>
        <path class="cls-2" d="M1462.85,355.32v-65.7h27.92c7.02,0,12.12.59,15.3,1.77,3.18,1.18,5.73,3.28,7.64,6.3s2.87,6.47,2.87,10.35c0,4.93-1.45,9-4.35,12.21-2.9,3.21-7.23,5.24-13,6.07,2.87,1.67,5.24,3.51,7.1,5.51,1.87,2,4.38,5.56,7.55,10.67l8.02,12.82h-15.86l-9.59-14.3c-3.41-5.11-5.74-8.33-6.99-9.66-1.25-1.33-2.58-2.24-3.99-2.73-1.41-.49-3.63-.74-6.68-.74h-2.69v27.43h-13.26ZM1476.11,317.41h9.82c6.36,0,10.34-.27,11.92-.81,1.58-.54,2.82-1.46,3.72-2.78.9-1.31,1.34-2.96,1.34-4.93,0-2.21-.59-4-1.77-5.36-1.18-1.36-2.85-2.22-5-2.58-1.08-.15-4.3-.22-9.68-.22h-10.35v16.67Z"/>
        <path class="cls-2" d="M1543.87,355.32v-54.59h-19.5v-11.11h52.21v11.11h-19.45v54.59h-13.27Z"/>
        <path class="cls-2" d="M1637.58,355.32h-14.43l-5.74-14.92h-26.26l-5.42,14.92h-14.07l25.59-65.7h14.03l26.31,65.7ZM1613.16,329.33l-9.05-24.38-8.87,24.38h17.93Z"/>
        <path class="cls-2" d="M1644.44,355.32v-65.7h19.85l11.92,44.82,11.79-44.82h19.9v65.7h-12.32v-51.72l-13.04,51.72h-12.77l-13-51.72v51.72h-12.32Z"/>
        <path class="cls-2" d="M1721.07,355.32v-65.7h48.71v11.11h-35.45v14.57h32.98v11.07h-32.98v17.88h36.7v11.07h-49.97Z"/>
        <path class="cls-2" d="M1782.42,355.32v-65.7h12.91l26.89,43.87v-43.87h12.32v65.7h-13.31l-26.49-42.84v42.84h-12.32Z"/>
        <path class="cls-2" d="M1863.36,355.32v-54.59h-19.5v-11.11h52.21v11.11h-19.45v54.59h-13.27Z"/>
        <path class="cls-2" d="M1957.07,355.32h-14.43l-5.74-14.92h-26.26l-5.42,14.92h-14.07l25.59-65.7h14.03l26.31,65.7ZM1932.65,329.33l-9.05-24.38-8.87,24.38h17.93Z"/>
        <path class="cls-2" d="M1964.46,355.32v-65.16h13.27v54.09h32.98v11.07h-46.25Z"/>
        <path class="cls-2" d="M740.24,399.76h24.25c5.47,0,9.64.42,12.5,1.25,3.85,1.14,7.15,3.15,9.9,6.05,2.75,2.9,4.84,6.45,6.27,10.64,1.43,4.2,2.15,9.37,2.15,15.53,0,5.41-.67,10.07-2.02,13.98-1.64,4.78-3.99,8.65-7.04,11.61-2.3,2.24-5.41,3.99-9.32,5.24-2.93.93-6.84,1.39-11.74,1.39h-24.96v-65.7ZM753.51,410.88v43.52h9.9c3.7,0,6.38-.21,8.02-.63,2.15-.54,3.94-1.45,5.36-2.73,1.42-1.28,2.58-3.4,3.47-6.34.9-2.94,1.34-6.95,1.34-12.03s-.45-8.98-1.34-11.7c-.9-2.72-2.15-4.84-3.76-6.36-1.61-1.52-3.66-2.55-6.14-3.09-1.85-.42-5.48-.63-10.89-.63h-5.96Z"/>
        <path class="cls-2" d="M806.57,465.46v-65.7h48.71v11.11h-35.45v14.56h32.98v11.07h-32.98v17.88h36.7v11.07h-49.97Z"/>
        <path class="cls-2" d="M893.64,465.46v-65.16h13.27v54.09h32.98v11.07h-46.25Z"/>
        <path class="cls-2" d="M946.66,433.01c0-6.69,1-12.31,3-16.85,1.49-3.35,3.53-6.35,6.12-9.01s5.42-4.63,8.49-5.92c4.09-1.73,8.81-2.6,14.16-2.6,9.68,0,17.43,3,23.24,9.01,5.81,6,8.72,14.36,8.72,25.05s-2.88,18.9-8.65,24.89c-5.77,5.99-13.47,8.99-23.12,8.99s-17.54-2.98-23.3-8.94c-5.77-5.96-8.65-14.17-8.65-24.63ZM960.33,432.57c0,7.44,1.72,13.08,5.15,16.92,3.43,3.84,7.8,5.76,13.09,5.76s9.63-1.91,13.02-5.71c3.39-3.81,5.09-9.52,5.09-17.14s-1.65-13.15-4.95-16.85c-3.3-3.7-7.69-5.56-13.15-5.56s-9.88,1.88-13.22,5.62c-3.35,3.75-5.02,9.4-5.02,16.96Z"/>
        <path class="cls-2" d="M1020.79,465.46v-65.7h27.92c7.02,0,12.12.59,15.3,1.77,3.18,1.18,5.73,3.28,7.64,6.3,1.91,3.02,2.87,6.47,2.87,10.35,0,4.93-1.45,9-4.35,12.21-2.9,3.21-7.23,5.24-13,6.07,2.87,1.67,5.24,3.51,7.1,5.51,1.87,2,4.38,5.56,7.55,10.67l8.02,12.82h-15.86l-9.59-14.3c-3.41-5.11-5.74-8.33-6.99-9.66-1.25-1.33-2.58-2.24-3.99-2.73-1.41-.49-3.63-.74-6.68-.74h-2.69v27.43h-13.26ZM1034.05,427.55h9.82c6.36,0,10.34-.27,11.92-.81,1.58-.54,2.82-1.46,3.72-2.78.9-1.31,1.34-2.96,1.34-4.93,0-2.21-.59-4-1.77-5.36-1.18-1.36-2.85-2.22-5-2.58-1.08-.15-4.3-.22-9.68-.22h-10.35v16.67Z"/>
        <path class="cls-2" d="M1087.02,465.46v-65.7h48.71v11.11h-35.45v14.56h32.98v11.07h-32.98v17.88h36.7v11.07h-49.97Z"/>
        <path class="cls-2" d="M1163.03,465.46v-54.58h-19.5v-11.11h52.21v11.11h-19.45v54.58h-13.27Z"/>
        <path class="cls-2" d="M1199.96,433.01c0-6.69,1-12.31,3-16.85,1.49-3.35,3.53-6.35,6.12-9.01s5.42-4.63,8.49-5.92c4.09-1.73,8.81-2.6,14.16-2.6,9.68,0,17.43,3,23.24,9.01,5.81,6,8.72,14.36,8.72,25.05s-2.88,18.9-8.65,24.89c-5.77,5.99-13.47,8.99-23.12,8.99s-17.54-2.98-23.3-8.94c-5.77-5.96-8.65-14.17-8.65-24.63ZM1213.63,432.57c0,7.44,1.72,13.08,5.15,16.92,3.43,3.84,7.8,5.76,13.09,5.76s9.63-1.91,13.02-5.71c3.39-3.81,5.09-9.52,5.09-17.14s-1.65-13.15-4.95-16.85c-3.3-3.7-7.69-5.56-13.15-5.56s-9.88,1.88-13.22,5.62c-3.35,3.75-5.02,9.4-5.02,16.96Z"/>
      </g>
    </g>
  </g>
</svg>